<svg width="155" height="24" viewBox="0 0 155 24" fill="none" xmlns="http://www.w3.org/2000/svg">
<path fill-rule="evenodd" clip-rule="evenodd" d="M71.6626 16.7253C73.7285 11.5514 75.4906 7.33276 77.0881 3.05068C77.8715 0.949019 79.0414 -0.660722 81.363 0.269942C83.7756 1.24458 82.0216 3.09057 81.5266 4.39248C79.425 9.88135 77.2036 15.3262 74.923 20.7435C74.3278 22.162 73.9003 23.872 71.6432 23.7963C69.5374 23.7237 68.934 22.3614 68.3112 20.7916C66.0745 15.1984 63.7448 9.63794 61.5961 4.00896C61.1604 2.87478 59.5619 1.21697 61.8037 0.305737C63.8205 -0.513452 65.1398 0.477551 65.9222 2.52297C67.6679 7.06481 69.562 11.5514 71.6626 16.7253" fill="#F47820"/>
<path fill-rule="evenodd" clip-rule="evenodd" d="M59.0508 12.1589C59.0712 17.0127 55.8916 21.8102 51.6208 23.2809C50.4539 23.6797 49.0436 24.591 48.2888 22.7695C47.7458 21.4554 48.1405 20.3365 49.332 19.3261C56.3467 13.377 56.403 10.361 49.5396 4.97545C48.1487 3.88525 47.5862 2.69072 48.3328 1.20473C49.2359 -0.59728 50.6656 0.668832 51.7405 1.05235C56.1944 2.63448 59.0273 7.03723 59.0508 12.1589" fill="#F47820"/>
<path fill-rule="evenodd" clip-rule="evenodd" d="M35.0017 11.983C35.0856 6.8613 37.9941 2.59457 42.5882 0.96846C43.5423 0.633012 44.7655 -0.605486 45.5162 1.02471C46.139 2.37468 46.1114 3.74511 44.6816 4.956C37.762 10.8161 37.7538 13.1499 44.6888 19.3496C45.9038 20.4326 46.1431 21.619 45.6604 22.8288C44.9087 24.7147 43.4585 23.5846 42.3478 23.1806C37.9297 21.575 34.9178 16.9247 35.0017 11.983" fill="#F47820"/>
<path fill-rule="evenodd" clip-rule="evenodd" d="M90.0796 12.1344C90.0796 15.2312 90.0878 18.3269 90.0714 21.4227C90.0683 22.654 89.7799 23.6685 88.2387 23.7565C86.6924 23.8403 85.5531 23.2523 85.5336 21.6712C85.458 15.1514 85.4815 8.63473 85.5255 2.11906C85.5336 0.813068 86.2567 0.0941041 87.6946 0.0695592C89.333 0.0460369 90.0918 0.725115 90.0837 2.3594C90.0642 5.61468 90.0755 8.87507 90.0796 12.1344" fill="#F47820"/>
<path fill-rule="evenodd" clip-rule="evenodd" d="M105.672 19.6728C101.49 19.4816 98.6887 16.2294 98.8564 11.755C99.0242 7.33284 102.017 4.67585 106.575 4.908C110.642 5.1197 113.402 8.2001 113.275 12.386C113.143 16.6528 109.799 19.861 105.672 19.6728M105.816 0.113411C99.4324 0.117502 94.0908 5.5266 94.0233 12.0586C93.9476 18.9619 99.0806 24.0437 106.095 23.9998C113.04 23.9599 117.697 19.2534 117.726 12.255C117.753 5.11956 112.835 0.106252 105.816 0.113411" fill="#F47820"/>
<circle cx="12" cy="12" r="12" fill="#F47820"/>
<mask id="mask0" mask-type="alpha" maskUnits="userSpaceOnUse" x="1" y="1" width="22" height="19">
<path fill-rule="evenodd" clip-rule="evenodd" d="M1 1.00012H23V19.2728H1V1.00012Z" fill="white"/>
</mask>
<g mask="url(#mask0)">
<path fill-rule="evenodd" clip-rule="evenodd" d="M1.03659 8.91885C0.882395 8.28918 1.24755 7.77822 1.50836 7.27095C3.24612 3.88946 6.01733 1.78452 9.9392 1.14199C10.9479 0.976466 11.9648 0.948752 12.9763 1.09621C17.0178 1.68511 20.0202 3.71287 21.8777 7.18488C22.9371 9.16411 23.1731 11.32 22.8891 13.5222C22.8582 13.7597 22.7666 13.9903 22.7033 14.2239C22.6102 14.488 22.6303 14.7762 22.5136 15.0352C22.4788 15.1117 22.48 15.2277 22.3564 15.2163C22.2443 15.2052 22.2362 15.0998 22.2157 15.0145C22.3536 14.2117 22.5962 13.4257 22.6357 12.6059C22.6434 12.4399 22.6473 12.274 22.6546 12.1089C22.8088 11.5207 22.5924 10.9469 22.5696 10.365C22.5642 10.2312 22.5847 10.0824 22.5271 9.9053C22.5611 10.4094 22.5843 10.8705 22.6894 11.3227C22.6867 13.8588 22.053 16.2187 20.5514 18.3365C20.2218 18.6598 20.0182 19.1102 19.5271 19.2728C19.4557 19.2451 19.3923 19.2133 19.4429 19.1232C19.5391 18.8988 19.8038 18.774 19.8382 18.5131C19.8397 18.4181 19.7798 18.3251 19.8301 18.229C20.7364 17.0057 21.4302 15.69 21.7502 14.2098C22.4189 11.1136 21.9237 8.22902 19.9096 5.68217C17.568 2.7215 14.3841 1.38215 10.5399 1.65002C8.0785 1.82113 5.96174 2.85828 4.15792 4.48688C3.148 5.39879 2.41898 6.48399 1.80003 7.65261C1.43725 8.00514 1.43488 8.49765 1.26338 8.92396C1.24251 8.97645 1.25794 9.04153 1.18692 9.06924C1.08802 9.06366 0.990992 9.05628 1.03659 8.91885" fill="white"/>
</g>
<path fill-rule="evenodd" clip-rule="evenodd" d="M17.2609 21.6089C16.2054 22.1997 15.0889 22.6346 13.8739 22.8163C13.7452 22.8611 13.7135 22.806 13.7363 22.6944C14.5152 22.2799 15.4478 22.2444 16.2078 21.7814C16.4431 21.5062 16.7939 21.4246 17.1126 21.2893C17.3499 21.3155 17.3077 21.4615 17.2609 21.6089" fill="white"/>
<path fill-rule="evenodd" clip-rule="evenodd" d="M22.3036 15.0228C22.341 15.0387 22.3148 15.2223 22.4025 15.0786C22.5616 14.817 22.5006 14.477 22.7034 14.2236C22.6293 15.417 22.1177 16.4682 21.5405 17.4983C21.3689 17.5323 21.3241 17.6964 21.2114 17.7898C21.0997 17.8825 20.9718 17.9802 20.937 17.7281C21.3883 16.9441 21.8002 16.1441 22.0837 15.2881C22.1181 15.1827 22.1344 15.0372 22.3036 15.0228" fill="white"/>
<path fill-rule="evenodd" clip-rule="evenodd" d="M18.9792 20.0627C19.5295 19.5163 20.1604 19.036 20.5149 18.3313C20.6776 18.1529 20.6788 17.8495 20.9821 17.7812C21.2545 17.8495 21.2275 17.5805 21.3136 17.4745C21.4504 17.3064 21.4697 17.4848 21.5404 17.4985C21.4553 17.7073 21.3464 17.9023 21.1795 18.0634C20.8979 18.2992 20.7437 18.6306 20.4968 18.8929C20.2052 19.0573 20.1657 19.4017 19.9359 19.6105C19.7075 19.7198 19.5739 19.9301 19.3854 20.0823C19.2427 20.1968 19.1029 20.2937 18.9792 20.0627" fill="white"/>
<path fill-rule="evenodd" clip-rule="evenodd" d="M19.543 19.2393C18.7827 20.1064 17.9053 20.8273 16.7888 21.2481C16.7922 21.2038 16.7799 21.1299 16.8015 21.1188C17.8145 20.6127 18.6374 19.8792 19.443 19.1229C19.4762 19.1617 19.5097 19.2005 19.543 19.2393" fill="white"/>
<path fill-rule="evenodd" clip-rule="evenodd" d="M18.9796 20.0625C19.167 20.1959 19.2789 20.0784 19.4223 19.9683C19.5861 19.8423 19.6534 19.5801 19.9362 19.6103C19.4513 20.1635 18.8614 20.5957 18.2278 20.9785C18.1609 21.0206 18.0863 21.0391 18.04 20.9644C17.9832 20.8739 18.0963 20.8211 18.1153 20.7454C18.4031 20.5178 18.6913 20.2901 18.9796 20.0625" fill="white"/>
<path fill-rule="evenodd" clip-rule="evenodd" d="M18.1153 20.7451C18.103 20.8449 18.0059 20.9816 18.2278 20.9783C17.9662 21.2731 17.6139 21.4412 17.2611 21.6086C17.2309 21.5195 17.2005 21.4305 17.1703 21.3415C17.4856 21.1427 17.8004 20.9438 18.1153 20.7451" fill="white"/>
<path fill-rule="evenodd" clip-rule="evenodd" d="M12.8799 22.9999C12.7149 22.9578 12.5353 23.0431 12.3425 22.9363C12.7045 22.8861 13.0367 22.7992 13.3671 22.8055C13.6958 22.8114 13.3482 22.6378 13.451 22.6049C13.5464 22.6347 13.6413 22.6644 13.7364 22.6942C13.782 22.7349 13.828 22.7756 13.874 22.8162C13.5537 22.9334 13.2133 22.9496 12.8799 22.9999" fill="white"/>
<path fill-rule="evenodd" clip-rule="evenodd" d="M19.83 18.2286C19.8911 18.3218 20.1282 18.4101 19.8381 18.5128C19.6055 18.7101 19.373 18.9074 19.14 19.1047C19.1126 19.0833 19.0855 19.0622 19.0585 19.0411C19.3154 18.7703 19.5727 18.4995 19.83 18.2286" fill="white"/>
<path fill-rule="evenodd" clip-rule="evenodd" d="M20.4968 18.8928C20.6823 18.5846 20.8132 18.2355 21.1795 18.0632C20.9747 18.357 20.8306 18.6962 20.4968 18.8928" fill="white"/>
<path fill-rule="evenodd" clip-rule="evenodd" d="M18.6233 3.72156C18.9938 3.81917 19.1997 4.09187 19.3759 4.39776C19.1247 4.17236 18.874 3.94696 18.6233 3.72156" fill="white"/>
<path fill-rule="evenodd" clip-rule="evenodd" d="M16.3459 12.8147C15.8142 12.819 15.5147 12.5001 15.5139 12.0035C15.5139 11.5421 15.8025 11.2528 16.2915 11.2316C16.8239 11.2091 17.1082 11.4972 17.1772 11.9725C17.1464 12.4993 16.8747 12.8106 16.3459 12.8147M11.9883 17.1446C11.4661 17.146 11.1606 16.8335 11.16 16.3285C11.1585 15.8004 11.5014 15.575 12.0449 15.5496C12.5354 15.6248 12.8453 15.8889 12.8101 16.4051C12.7785 16.8749 12.4546 17.1439 11.9883 17.1446M7.6059 17.1448C7.07272 17.1336 6.80105 16.8035 6.80406 16.3033C6.80688 15.821 7.10731 15.5674 7.59499 15.5568C8.13174 15.5462 8.40059 15.8483 8.47542 16.3265C8.39683 16.8203 8.13832 17.1554 7.6059 17.1448M17.032 10.7907C16.4306 10.469 15.8416 10.5519 15.3612 10.9803C14.8538 11.4327 14.6974 12.0205 15.0522 12.6309C15.224 12.925 15.4391 13.173 15.0264 13.4117C14.1781 13.9006 13.9689 15.1831 12.688 15.1275C12.6329 15.1248 12.5794 15.0806 12.5235 15.0594C11.8018 14.7962 11.2274 14.9977 10.7758 15.5729C10.2346 16.2626 9.38404 16.2626 8.8377 15.5806C8.41695 15.056 7.90201 14.8109 7.18609 15.0292C6.50457 15.2372 6.19174 15.7246 6.17707 16.3237C6.16297 16.9313 6.49141 17.4482 7.15074 17.6398C7.82793 17.8373 8.45135 17.6763 8.80461 17.0816C9.04263 16.6804 9.31805 16.5647 9.80348 16.6538C10.2624 16.5028 10.551 16.7106 10.8241 17.1468C11.1731 17.7058 11.8061 17.8322 12.4237 17.6468C12.9657 17.484 13.396 17.0927 13.3622 16.5042C13.3285 15.9086 13.6361 15.5538 14.0452 15.193C14.5556 14.7428 15.0403 14.2645 15.5199 13.7841C15.7784 13.5255 16.0377 13.3704 16.446 13.3598C17.1672 13.3409 17.6107 12.9286 17.7378 12.2481C17.8561 11.6152 17.632 11.1111 17.032 10.7907" fill="white"/>
<path fill-rule="evenodd" clip-rule="evenodd" d="M16.3006 8.49806C15.8056 8.48619 15.5346 8.20032 15.5222 7.73608C15.5081 7.21988 15.8189 6.96206 16.3557 6.9101C16.8507 6.96979 17.1855 7.20658 17.1658 7.72979C17.1458 8.24113 16.8294 8.51136 16.3006 8.49806M11.914 8.49717C11.4116 8.4684 11.1561 8.16994 11.1569 7.712C11.1576 7.20281 11.4565 6.93042 12.0256 6.91838C12.5118 6.98238 12.8496 7.22601 12.807 7.74994C12.7658 8.2451 12.4575 8.52881 11.914 8.49717M7.6507 12.8153C7.11019 12.8378 6.82461 12.521 6.80544 12.0217C6.78645 11.5498 7.05153 11.268 7.55163 11.2337C8.09514 11.1972 8.35873 11.5005 8.47698 11.9002C8.43806 12.4683 8.18106 12.7936 7.6507 12.8153M17.2814 6.66262C16.6285 6.12539 15.6834 6.23704 15.1385 6.91686C14.5546 7.64521 13.7285 7.65726 13.182 6.93106C12.8744 6.5222 12.4522 6.35715 11.9814 6.3158C11.1435 6.33971 10.3025 7.08065 10.5434 7.78366C10.8269 8.61306 10.3253 8.93903 9.87068 9.37576C9.50933 9.72348 9.13709 10.0606 8.78608 10.418C8.54224 10.6667 8.32491 10.7798 7.92521 10.6737C7.23937 10.491 6.6827 10.7791 6.3456 11.3711C6.02468 11.9364 6.1091 12.4956 6.55861 12.9703C7.02129 13.4577 7.63531 13.5154 8.21681 13.2696C8.85508 13.0012 9.2465 12.433 9.0115 11.7938C8.78307 11.1723 9.11283 10.9055 9.48 10.5712C9.78626 10.2931 10.0844 10.0072 10.3768 9.71647C10.813 9.28172 11.1824 8.83151 11.9791 9.08287C12.3837 9.2107 12.8295 8.91853 13.1284 8.53934C13.7439 7.76046 14.5356 7.76676 15.1664 8.53233C15.7127 9.19596 16.7101 9.29143 17.3087 8.7373C17.9159 8.17417 17.9035 7.17397 17.2814 6.66262" fill="white"/>
<path fill-rule="evenodd" clip-rule="evenodd" d="M7.71671 8.5144C7.10946 8.47575 6.79643 8.2181 6.80451 7.7046C6.81203 7.25295 7.04554 6.94478 7.56179 6.93076C8.09347 6.91583 8.41665 7.17024 8.44823 7.67799C8.48057 8.19976 8.13013 8.42882 7.71671 8.5144M7.67718 6.29785C6.88324 6.26764 6.14532 6.94476 6.14307 7.70458C6.14307 8.43581 6.82082 9.07769 7.60085 9.08326C8.4087 9.08883 9.04096 8.50036 9.05412 7.73065C9.06878 6.95447 8.46661 6.32877 7.67718 6.29785" fill="white"/>
<path fill-rule="evenodd" clip-rule="evenodd" d="M12.0613 12.8357C11.4637 12.793 11.1713 12.5085 11.1617 12.0141C11.1529 11.5491 11.4336 11.2661 11.9241 11.2415C12.4543 11.2156 12.7812 11.4831 12.8075 11.9873C12.8348 12.5001 12.4904 12.7424 12.0613 12.8357M11.9726 10.5974C11.2469 10.5989 10.5141 11.2948 10.503 11.9944C10.4898 12.781 11.1698 13.4082 12.0144 13.3884C12.8369 13.3688 13.4251 12.783 13.4163 11.9937C13.409 11.2555 12.7254 10.5953 11.9726 10.5974" fill="white"/>
<path fill-rule="evenodd" clip-rule="evenodd" d="M16.3129 17.1308C15.8295 17.1308 15.5314 16.8379 15.5086 16.3703C15.4844 15.8568 15.7752 15.5716 16.3665 15.5211C16.8226 15.5709 17.1647 15.8048 17.164 16.3287C17.164 16.8505 16.8276 17.1301 16.3129 17.1308M16.301 14.9217C15.5624 14.9456 14.8566 15.6443 14.8639 16.3446C14.872 17.0967 15.522 17.7086 16.3172 17.7127C17.1266 17.7177 17.7618 17.1341 17.7816 16.3678C17.8015 15.5924 17.0884 14.8957 16.301 14.9217" fill="white"/>
<path d="M126.133 20.4219H131.297V22H124.156V10.625H126.133V20.4219Z" fill="#2F4058"/>
<path d="M140.936 19.3516H136.53L135.608 22H133.553L137.85 10.625H139.623L143.928 22H141.866L140.936 19.3516ZM137.084 17.7578H140.381L138.733 13.0391L137.084 17.7578Z" fill="#2F4058"/>
<path d="M146.825 22V10.625H150.723C152.01 10.625 152.989 10.8828 153.661 11.3984C154.333 11.9141 154.669 12.6823 154.669 13.7031C154.669 14.224 154.528 14.6927 154.247 15.1094C153.966 15.526 153.554 15.849 153.013 16.0781C153.627 16.2448 154.101 16.5599 154.434 17.0234C154.773 17.4818 154.942 18.0339 154.942 18.6797C154.942 19.7474 154.598 20.5677 153.911 21.1406C153.229 21.7135 152.249 22 150.973 22H146.825ZM148.802 16.8672V20.4219H150.997C151.617 20.4219 152.101 20.2682 152.45 19.9609C152.799 19.6536 152.973 19.2266 152.973 18.6797C152.973 17.4974 152.369 16.8932 151.161 16.8672H148.802ZM148.802 15.4141H150.739C151.354 15.4141 151.833 15.276 152.177 15C152.526 14.7188 152.7 14.3229 152.7 13.8125C152.7 13.25 152.539 12.8438 152.216 12.5938C151.898 12.3438 151.401 12.2188 150.723 12.2188H148.802V15.4141Z" fill="#2F4058"/>
</svg>
